<svg id="efxc4pz558wj1" xmlns="http://www.w3.org/2000/svg" xmlns:xlink="http://www.w3.org/1999/xlink" viewBox="0 0 320 127" shape-rendering="geometricPrecision" text-rendering="geometricPrecision" width="320" height="127"><g id="efxc4pz558wj2"><circle id="efxc4pz558wj3" r="6.244900" transform="matrix(1 0 0 1 40.72600000000000 57.37000000000000)" fill="rgb(35,31,32)" stroke="none" stroke-width="1.249000"/><path id="efxc4pz558wj4" d="M42.849000,73.007000C41.211080,72.387501,39.394018,72.444901,37.798464,73.166545C36.202910,73.888188,34.959897,75.214810,34.343500,76.853900L34.343500,76.978800C34.141260,77.590832,33.483389,77.925342,32.869700,77.728190L32.794760,77.728190C30.577393,76.872750,28.520839,75.648115,26.712260,74.106190C26.221238,73.687725,26.159883,72.951454,26.574870,72.457490C28.290501,70.571548,28.762699,67.864456,27.786886,65.509046C26.811073,63.153636,24.562782,61.573604,22.016070,61.453490C17.722951,63.091988,13.004838,63.245881,8.614070,61.890630C9.590515,64.471849,11.001404,66.866972,12.785670,68.972330C24.775670,83.110330,30.595670,85.708330,46.957670,77.452930C46.891081,77.364779,46.836481,77.268183,46.795300,77.165670C46.182756,75.249988,44.729492,73.718551,42.848500,73.006570Z" fill="rgb(35,31,32)" stroke="none" stroke-width="1.249000"/><path id="efxc4pz558wj5" d="M70.239000,36.774000C65.243100,30.591600,37.840000,31.565800,33.032000,32.440000C34.016469,34.321096,34.703231,36.343500,35.067800,38.435100C35.968229,40.362584,37.749342,41.732138,39.843444,42.107243C41.937546,42.482347,44.083305,41.816192,45.596800,40.321100C46.320478,39.622351,46.875720,38.768133,47.220500,37.823100C47.422740,37.211068,48.080611,36.876558,48.694300,37.073710L48.769240,37.073710C50.986818,37.928715,53.043442,39.153392,54.851740,40.695710C55.307582,41.121046,55.351456,41.828510,54.951660,42.306910C53.056933,44.393396,52.697610,47.453369,54.057439,49.922028C55.417268,52.390687,58.195641,53.722300,60.971760,53.235910C61.595500,53.077460,62.230539,53.450696,62.395560,54.072730L62.395560,54.172640C62.742911,56.399007,62.742911,58.665773,62.395560,60.892140C62.269779,61.513039,61.669690,61.918652,61.046660,61.803890L60.959220,61.803890C58.193968,61.196072,55.349839,62.424692,53.896885,64.854709C52.443932,67.284727,52.707726,70.371633,54.551920,72.519890C66.054920,62.990190,75.122920,42.519890,70.238920,36.773890Z" fill="rgb(35,31,32)" stroke="none" stroke-width="1.249000"/><path id="efxc4pz558wj6" d="M28.286000,46.054000L25.875500,44.605200C25.193141,44.211245,24.773821,43.482213,24.776400,42.694300L24.776400,41.445300C24.773821,40.657387,25.193141,39.928355,25.875500,39.534400L28.286000,38.085600C29.336841,37.481214,29.700041,36.140194,29.097840,35.088100L27.936240,33.089700C27.319106,32.052365,25.980979,31.706687,24.938640,32.315330L22.440640,33.764130C21.760515,34.156801,20.922565,34.156801,20.242440,33.764130L19.118340,33.114660C18.435981,32.720705,18.016661,31.991673,18.019240,31.203760L18.019240,28.268660C18.019720,27.078585,17.073036,26.104242,15.883440,26.070460L13.585340,26.070460C12.993727,26.057000,12.421674,26.282639,11.998554,26.696350C11.575433,27.110060,11.336987,27.676894,11.337140,28.268660L11.337140,31.216260C11.339719,32.004173,10.920399,32.733205,10.238040,33.127160L9.126440,33.776630C8.446315,34.169301,7.608365,34.169301,6.928240,33.776630L4.555140,32.315330C3.509570,31.708905,2.170546,32.060406,1.557640,33.102190L0.396040,35.113090C-0.210453,36.158682,0.141056,37.497781,1.182900,38.110690L3.593400,39.559490C4.275759,39.953445,4.695079,40.682477,4.692500,41.470390L4.692500,42.719390C4.695079,43.507303,4.275759,44.236335,3.593400,44.630290L1.195400,46.116590C0.149034,46.725251,-0.208318,48.065339,0.396050,49.114190L1.557650,51.112590C2.166308,52.158896,3.506321,52.516240,4.555150,51.911940L6.978150,50.463140C7.658275,50.070469,8.496225,50.070469,9.176350,50.463140L10.287950,51.112610C10.951103,51.519106,11.350061,52.245794,11.337050,53.023510L11.337050,55.521510C11.337050,56.735542,12.321218,57.719710,13.535250,57.719710L15.833350,57.719710C17.047382,57.719710,18.031550,56.735542,18.031550,55.521510L18.031550,53.023510C18.028971,52.235597,18.448291,51.506565,19.130650,51.112610L20.254750,50.463140C20.934875,50.070469,21.772825,50.070469,22.452950,50.463140L24.875950,51.911940C25.924801,52.516308,27.264889,52.158956,27.873550,51.112590L29.035150,49.114190C29.352891,48.615714,29.456475,48.010272,29.322523,47.434516C29.188572,46.858760,28.828374,46.361219,28.323230,46.054190ZM14.697000,46.666000C12.117167,46.666000,10.025800,44.574633,10.025800,41.994800C10.025800,39.414967,12.117167,37.323600,14.697000,37.323600C17.276833,37.323600,19.368200,39.414967,19.368200,41.994800C19.368200,44.574633,17.276833,46.666000,14.697000,46.666000Z" fill="rgb(35,31,32)" stroke="none" stroke-width="1.249000"/><path id="efxc4pz558wj7" d="M90.610000,71.745000C88.469692,71.222838,86.433906,70.340093,84.589900,69.134600L85.913800,66.486800C86.696009,64.878701,88.581229,64.139837,90.247800,64.788200C91.062919,65.120507,91.897054,65.404109,92.745800,65.637510C94.713260,66.216302,96.752493,66.514833,98.803300,66.524290Q105.610200,66.524290,105.622700,62.939690C105.653745,61.845040,104.939274,60.868419,103.886600,60.566590C102.077784,59.974762,100.216715,59.556541,98.328600,59.317590C96.114058,58.998166,93.926447,58.513888,91.784000,57.868790C90.122066,57.338728,88.627862,56.382803,87.450000,55.096090C86.141164,53.570242,85.478130,51.594590,85.601500,49.588090C85.539645,46.625808,86.995182,43.837156,89.460800,42.194090C92.559961,40.198182,96.208618,39.228134,99.889800,39.421390C102.138594,39.425052,104.379902,39.680605,106.571800,40.183270C108.491191,40.600545,110.333022,41.317064,112.029800,42.306570L110.581000,45.079270C109.803077,46.642604,107.975985,47.373441,106.334500,46.777870C104.226263,46.007790,101.996804,45.622806,99.752400,45.641270C97.999483,45.540455,96.249839,45.888677,94.669100,46.652970C93.631439,47.130679,92.957397,48.158688,92.933000,49.300770C92.905922,50.477669,93.659110,51.531113,94.781500,51.886170C96.654653,52.565031,98.592340,53.050492,100.564300,53.334970C102.724797,53.664335,104.858029,54.152762,106.946600,54.796270C108.587547,55.298303,110.071542,56.214495,111.255600,57.456570C112.526946,58.941323,113.167847,60.864061,113.041600,62.814670C113.085399,65.770407,111.584705,68.535053,109.082300,70.108670C105.856542,72.098057,102.100890,73.056610,98.316300,72.856470C95.709371,72.832792,93.117445,72.458914,90.610100,71.744870Z" fill="rgb(35,31,32)" stroke="none" stroke-width="1.249000"/><path id="efxc4pz558wj8" d="M186.720000,39.884000L186.720000,67.424000Q186.720000,84.572000,169.234000,84.572000C166.233331,84.588694,163.244829,84.189394,160.353800,83.385500C157.830690,82.731877,155.470445,81.562378,153.422000,79.950800L155.620200,76.278800C155.932649,75.769661,156.434879,75.405803,157.016026,75.267548C157.597174,75.129292,158.209451,75.228006,158.717700,75.541900C159.827504,76.172797,160.999401,76.687586,162.214800,77.078100C164.342184,77.783364,166.568168,78.145923,168.809400,78.152200Q174.155000,78.152200,176.653000,75.729200C178.460063,73.698922,179.362046,71.020091,179.151000,68.310300L179.151000,66.586700C177.837741,68.005448,176.213067,69.099975,174.404900,69.784100C172.447622,70.531352,170.367366,70.904187,168.272400,70.883200C165.362802,70.926855,162.487726,70.248851,159.904200,68.909800C157.461575,67.639899,155.420406,65.715484,154.009000,63.351800C152.549352,60.867206,151.805840,58.027104,151.860800,55.146000C151.801961,52.272332,152.545908,49.439223,154.009000,46.965200C155.421915,44.615326,157.463897,42.707463,159.904200,41.457200C162.493143,40.135500,165.365901,39.466624,168.272400,39.508800C170.462746,39.482924,172.637741,39.877242,174.679600,40.670400C176.565917,41.410979,178.230323,42.623782,179.513200,44.192500L179.513200,42.206600C179.513200,40.930491,180.547691,39.896000,181.823800,39.896000L186.719800,39.896000ZM176.478000,61.866000C178.333689,60.134755,179.345534,57.682599,179.250700,55.146500C179.318980,52.651634,178.308543,50.248406,176.478000,48.551900C172.339094,45.169670,166.390906,45.169670,162.252000,48.551900C160.416059,50.259361,159.409391,52.678144,159.491800,55.184000C159.393762,57.718149,160.400919,60.170000,162.252000,61.903500C166.378574,65.334363,172.369557,65.318583,176.478000,61.866030Z" fill="rgb(35,31,32)" stroke="none" stroke-width="1.249000"/><path id="efxc4pz558wj9" d="M228.440000,39.884000L228.440000,72.357000L221.170900,72.357000L221.170900,68.147900C219.936571,69.675288,218.339194,70.869040,216.524700,71.620100C214.586366,72.409582,212.510022,72.804487,210.417200,72.781700C207.460351,72.833681,204.539863,72.123997,201.936600,70.720900C199.512537,69.370599,197.520546,67.361272,196.191300,64.925600C193.394885,59.432342,193.394885,52.932858,196.191300,47.439600C197.536405,45.006296,199.540796,43.001905,201.974100,41.656800C204.578973,40.257904,207.498348,39.548491,210.454700,39.596000C212.436001,39.576525,214.401499,39.950095,216.237500,40.695100C217.989490,41.415254,219.559439,42.515947,220.833700,43.917500L220.833700,42.306300C220.833700,41.030191,221.868191,39.995700,223.144300,39.995700ZM218.223000,63.465000C221.878295,59.241757,221.878295,52.975243,218.223000,48.752000C214.356589,45.040389,208.250411,45.040389,204.384000,48.752000C200.776147,52.992808,200.776147,59.224192,204.384000,63.465000C206.187223,65.332116,208.696606,66.348563,211.290900,66.262700C213.884340,66.364729,216.402261,65.377473,218.235200,63.539900Z" fill="rgb(35,31,32)" stroke="none" stroke-width="1.249000"/><path id="efxc4pz558wj10" d="M256.660000,70.596000C255.697565,71.378269,254.583327,71.952397,253.387700,72.282100C252.070971,72.652828,250.708909,72.837799,249.341000,72.831650C246.319610,73.029020,243.342801,72.023293,241.060200,70.033950C239.003801,67.841339,237.957753,64.888830,238.175100,61.890650L238.175100,32.701650L243.458300,32.701650C244.734409,32.701650,245.768900,33.736141,245.768900,35.012250L245.768900,40.108050L254.436800,40.108050L254.436800,46.215550L245.768900,46.215550L245.768900,61.665550C245.670226,62.982238,246.096806,64.284446,246.955400,65.287550C247.830797,66.155698,249.034502,66.609933,250.265200,66.536550C250.750462,66.540662,251.235180,66.503054,251.714000,66.424140C253.444916,66.086837,255.176765,67.002167,255.873100,68.622340Z" fill="rgb(35,31,32)" stroke="none" stroke-width="1.249000"/><path id="efxc4pz558wj11" d="M267.540000,70.646000C264.977233,69.307139,262.840052,67.278133,261.370000,64.788300C258.413929,59.445599,258.413929,52.958001,261.370000,47.615300C262.838231,45.114538,264.974984,43.072951,267.540000,41.720100C273.141171,38.878325,279.761829,38.878325,285.363000,41.720100C287.927573,43.073530,290.064152,45.114983,291.532900,47.615300C294.488971,52.958001,294.488971,59.445599,291.532900,64.788300C290.071532,67.300770,287.933666,69.352115,285.363000,70.708500C279.751876,73.530669,273.131209,73.507471,267.540000,70.646050ZM283.352000,63.426900C287.007295,59.203657,287.007295,52.937143,283.352000,48.713900C279.485589,45.002289,273.379411,45.002289,269.513000,48.713900C265.905147,52.954708,265.905147,59.186092,269.513000,63.426900C271.316200,65.293989,273.825540,66.310434,276.419800,66.224600C279.012682,66.316538,281.525925,65.320276,283.351600,63.476800Z" fill="rgb(35,31,32)" stroke="none" stroke-width="1.249000"/><path id="efxc4pz558wj12" d="M319.840000,39.522000L319.840000,46.741100C319.259925,46.624965,318.670425,46.562252,318.078900,46.553750C315.529298,46.388995,313.026374,47.294221,311.172000,49.051750C309.376878,51.118687,308.478087,53.815026,308.674000,56.545650L308.674000,72.282650L301.105200,72.282650L301.105200,39.809650L306.026200,39.809650C306.639009,39.809650,307.226719,40.053088,307.660041,40.486409C308.093362,40.919731,308.336800,41.507441,308.336800,42.120250L308.336800,44.543250Q311.559200,39.522350,319.839800,39.522350Z" fill="rgb(35,31,32)" stroke="none" stroke-width="1.249000"/><path id="efxc4pz558wj13" d="M145.880000,39.884000C144.355714,39.878876,142.975123,40.782892,142.370400,42.182100L141.745920,43.630900L129.355920,72.357900L133.427620,72.357900C135.436910,72.361277,137.252699,71.160588,138.036320,69.310400L150.663320,39.809400Z" fill="rgb(35,31,32)" stroke="none" stroke-width="1.249000"/><path id="efxc4pz558wj14" d="M131.310000,59.455000L123.816100,42.219000C123.221133,40.800902,121.831847,39.879629,120.294000,39.883400L114.923400,39.883400L127.488400,68.235400Z" fill="rgb(35,31,32)" stroke="none" stroke-width="1.249000"/></g><script><![CDATA[!function(t,n){"object"==typeof exports&&"undefined"!=typeof module?module.exports=n():"function"==typeof define&&define.amd?define(n):(t=t||self).__SVGATOR_PLAYER__=n()}(this,(function(){"use strict";function t(n){return(t="function"==typeof Symbol&&"symbol"==typeof Symbol.iterator?function(t){return typeof t}:function(t){return t&&"function"==typeof Symbol&&t.constructor===Symbol&&t!==Symbol.prototype?"symbol":typeof t})(n)}function n(t,n){if(!(t instanceof n))throw new TypeError("Cannot call a class as a function")}function r(t,n){for(var r=0;r<n.length;r++){var e=n[r];e.enumerable=e.enumerable||!1,e.configurable=!0,"value"in e&&(e.writable=!0),Object.defineProperty(t,e.key,e)}}function e(t,n,e){return n&&r(t.prototype,n),e&&r(t,e),t}var i=Math.abs;function u(t){return t}function o(t,n,r){var e=1-r;return 3*r*e*(t*e+n*r)+r*r*r}function a(){var t=arguments.length>0&&void 0!==arguments[0]?arguments[0]:0,n=arguments.length>1&&void 0!==arguments[1]?arguments[1]:0,r=arguments.length>2&&void 0!==arguments[2]?arguments[2]:1,e=arguments.length>3&&void 0!==arguments[3]?arguments[3]:1;return t<0||t>1||r<0||r>1?null:i(t-n)<=1e-5&&i(r-e)<=1e-5?u:function(u){if(u<=0)return t>0?u*n/t:0===n&&r>0?u*e/r:0;if(u>=1)return r<1?1+(u-1)*(e-1)/(r-1):1===r&&t<1?1+(u-1)*(n-1)/(t-1):1;for(var a,l=0,s=1;l<s;){var f=o(t,r,a=(l+s)/2);if(i(u-f)<1e-5)break;f<u?l=a:s=a}return o(n,e,a)}}function l(){return 1}function s(t){return 1===t?1:0}function f(){var t=arguments.length>0&&void 0!==arguments[0]?arguments[0]:1,n=arguments.length>1&&void 0!==arguments[1]?arguments[1]:0;if(1===t){if(0===n)return s;if(1===n)return l}var r=1/t;return function(t){return t>=1?1:(t+=n*r)-t%r}}function c(t){var n=arguments.length>1&&void 0!==arguments[1]?arguments[1]:2;if(Number.isInteger(t))return t;var r=Math.pow(10,n);return Math.round(t*r)/r}var h=Math.PI/180;function v(t,n,r){return t>=.5?r:n}function d(t,n,r){return 0===t||n===r?n:t*(r-n)+n}function y(t,n,r){var e=d(t,n,r);return e<=0?0:e}function g(t,n,r){return 0===t?n:1===t?r:{x:d(t,n.x,r.x),y:d(t,n.y,r.y)}}function m(t,n,r){return 0===t?n:1===t?r:{x:y(t,n.x,r.x),y:y(t,n.y,r.y)}}function p(t,n,r){var e=function(t,n,r){return Math.round(d(t,n,r))}(t,n,r);return e<=0?0:e>=255?255:e}function b(t,n,r){return 0===t?n:1===t?r:{r:p(t,n.r,r.r),g:p(t,n.g,r.g),b:p(t,n.b,r.b),a:d(t,null==n.a?1:n.a,null==r.a?1:r.a)}}function w(t,n,r){if(0===t)return n;if(1===t)return r;var e=n.length;if(e!==r.length)return v(t,n,r);for(var i=[],u=0;u<e;u++)i.push(b(t,n[u],r[u]));return i}function x(t,n,r){var e=n.length;if(e!==r.length)return v(t,n,r);for(var i=new Array(e),u=0;u<e;u++)i[u]=d(t,n[u],r[u]);return i}function k(t,n){for(var r=[],e=0;e<t;e++)r.push(n);return r}function A(t,n){if(--n<=0)return t;var r=(t=Object.assign([],t)).length;do{for(var e=0;e<r;e++)t.push(t[e])}while(--n>0);return t}var _=/\.0+$/g;function M(t){return Number.isInteger(t)?t+"":t.toFixed(6).replace(_,"")}function S(t){var n=arguments.length>1&&void 0!==arguments[1]?arguments[1]:" ";return t&&t.length?t.map(M).join(n):""}function E(t){return M(t.x)+","+M(t.y)}function B(t){return t?null==t.a||t.a>=1?"rgb("+t.r+","+t.g+","+t.b+")":"rgba("+t.r+","+t.g+","+t.b+","+t.a+")":"transparent"}var I={f:null,i:m,u:function(t,n){return function(r){var e=n(r);t.setAttribute("rx",M(e.x)),t.setAttribute("ry",M(e.y))}}},F={f:null,i:function(t,n,r){return 0===t?n:1===t?r:{width:y(t,n.width,r.width),height:y(t,n.height,r.height)}},u:function(t,n){return function(r){var e=n(r);t.setAttribute("width",M(e.width)),t.setAttribute("height",M(e.height))}}},O=Math.sin,T=Math.cos,q=Math.acos,C=Math.asin,P=Math.tan,j=Math.atan2,V=Math.PI/180,N=180/Math.PI,z=Math.sqrt,R=function(){function t(){var r=arguments.length>0&&void 0!==arguments[0]?arguments[0]:1,e=arguments.length>1&&void 0!==arguments[1]?arguments[1]:0,i=arguments.length>2&&void 0!==arguments[2]?arguments[2]:0,u=arguments.length>3&&void 0!==arguments[3]?arguments[3]:1,o=arguments.length>4&&void 0!==arguments[4]?arguments[4]:0,a=arguments.length>5&&void 0!==arguments[5]?arguments[5]:0;n(this,t),this.m=[r,e,i,u,o,a],this.i=null,this.w=null,this.s=null}return e(t,[{key:"point",value:function(t,n){var r=this.m;return{x:r[0]*t+r[2]*n+r[4],y:r[1]*t+r[3]*n+r[5]}}},{key:"translateSelf",value:function(){var t=arguments.length>0&&void 0!==arguments[0]?arguments[0]:0,n=arguments.length>1&&void 0!==arguments[1]?arguments[1]:0;if(!t&&!n)return this;var r=this.m;return r[4]+=r[0]*t+r[2]*n,r[5]+=r[1]*t+r[3]*n,this.w=this.s=this.i=null,this}},{key:"rotateSelf",value:function(){var t=arguments.length>0&&void 0!==arguments[0]?arguments[0]:0;if(t%=360){var n=O(t*=V),r=T(t),e=this.m,i=e[0],u=e[1];e[0]=i*r+e[2]*n,e[1]=u*r+e[3]*n,e[2]=e[2]*r-i*n,e[3]=e[3]*r-u*n,this.w=this.s=this.i=null}return this}},{key:"scaleSelf",value:function(){var t=arguments.length>0&&void 0!==arguments[0]?arguments[0]:1,n=arguments.length>1&&void 0!==arguments[1]?arguments[1]:1;if(1!==t||1!==n){var r=this.m;r[0]*=t,r[1]*=t,r[2]*=n,r[3]*=n,this.w=this.s=this.i=null}return this}},{key:"skewSelf",value:function(t,n){if(n%=360,(t%=360)||n){var r=this.m,e=r[0],i=r[1],u=r[2],o=r[3];t&&(t=P(t*V),r[2]+=e*t,r[3]+=i*t),n&&(n=P(n*V),r[0]+=u*n,r[1]+=o*n),this.w=this.s=this.i=null}return this}},{key:"resetSelf",value:function(){var t=arguments.length>0&&void 0!==arguments[0]?arguments[0]:1,n=arguments.length>1&&void 0!==arguments[1]?arguments[1]:0,r=arguments.length>2&&void 0!==arguments[2]?arguments[2]:0,e=arguments.length>3&&void 0!==arguments[3]?arguments[3]:1,i=arguments.length>4&&void 0!==arguments[4]?arguments[4]:0,u=arguments.length>5&&void 0!==arguments[5]?arguments[5]:0,o=this.m;return o[0]=t,o[1]=n,o[2]=r,o[3]=e,o[4]=i,o[5]=u,this.w=this.s=this.i=null,this}},{key:"recomposeSelf",value:function(){var t=arguments.length>0&&void 0!==arguments[0]?arguments[0]:null,n=arguments.length>1&&void 0!==arguments[1]?arguments[1]:null,r=arguments.length>2&&void 0!==arguments[2]?arguments[2]:null,e=arguments.length>3&&void 0!==arguments[3]?arguments[3]:null,i=arguments.length>4&&void 0!==arguments[4]?arguments[4]:null;return this.isIdentity||this.resetSelf(),t&&(t.x||t.y)&&this.translateSelf(t.x,t.y),n&&this.rotateSelf(n),r&&(r.x&&this.skewSelf(r.x,0),r.y&&this.skewSelf(0,r.y)),!e||1===e.x&&1===e.y||this.scaleSelf(e.x,e.y),i&&(i.x||i.y)&&this.translateSelf(i.x,i.y),this}},{key:"decompose",value:function(){var t=arguments.length>0&&void 0!==arguments[0]?arguments[0]:0,n=arguments.length>1&&void 0!==arguments[1]?arguments[1]:0,r=this.m,e=r[0]*r[0]+r[1]*r[1],i=[[r[0],r[1]],[r[2],r[3]]],u=z(e);if(0===u)return{origin:{x:r[4],y:r[5]},translate:{x:t,y:n},scale:{x:0,y:0},skew:{x:0,y:0},rotate:0};i[0][0]/=u,i[0][1]/=u;var o=r[0]*r[3]-r[1]*r[2]<0;o&&(u=-u);var a=i[0][0]*i[1][0]+i[0][1]*i[1][1];i[1][0]-=i[0][0]*a,i[1][1]-=i[0][1]*a;var l=z(i[1][0]*i[1][0]+i[1][1]*i[1][1]);if(0===l)return{origin:{x:r[4],y:r[5]},translate:{x:t,y:n},scale:{x:u,y:0},skew:{x:0,y:0},rotate:0};i[1][0]/=l,i[1][1]/=l,a/=l;var s=0;return i[1][1]<0?(s=q(i[1][1])*N,i[0][1]<0&&(s=360-s)):s=C(i[0][1])*N,o&&(s=-s),a=j(a,z(i[0][0]*i[0][0]+i[0][1]*i[0][1]))*N,{origin:{x:r[4],y:r[5]},translate:{x:t,y:n},scale:{x:u,y:l},skew:{x:a,y:0},rotate:s}}},{key:"toString",value:function(){return null===this.s&&(this.s="matrix("+this.m.map(D).join(" ")+")"),this.s}},{key:"determinant",get:function(){var t=this.m;return t[0]*t[3]-t[1]*t[2]}},{key:"isIdentity",get:function(){if(null===this.i){var t=this.m;this.i=1===t[0]&&0===t[1]&&0===t[2]&&1===t[3]&&0===t[4]&&0===t[5]}return this.i}}]),t}(),L=/\.0+$/;function D(t){return Number.isInteger(t)?t:t.toFixed(14).replace(L,"")}Object.freeze({M:2,L:2,Z:0,H:1,V:1,C:6,Q:4,T:2,S:4,A:7});function U(t,n,r){return t+(n-t)*r}function W(t,n,r){var e=arguments.length>3&&void 0!==arguments[3]&&arguments[3],i={x:U(t.x,n.x,r),y:U(t.y,n.y,r)};return e&&(i.a=Y(t,n)),i}function Y(t,n){return Math.atan2(n.y-t.y,n.x-t.x)}function G(t,n,r,e){var i=1-e;return i*i*t+2*i*e*n+e*e*r}function H(t,n,r,e){return 2*(1-e)*(n-t)+2*e*(r-n)}function X(t,n,r,e){var i=arguments.length>4&&void 0!==arguments[4]&&arguments[4],u={x:G(t.x,n.x,r.x,e),y:G(t.y,n.y,r.y,e)};return i&&(u.a=$(t,n,r,e)),u}function $(t,n,r,e){return Math.atan2(H(t.y,n.y,r.y,e),H(t.x,n.x,r.x,e))}function Q(t,n,r,e,i){var u=i*i;return i*u*(e-t+3*(n-r))+3*u*(t+r-2*n)+3*i*(n-t)+t}function Z(t,n,r,e,i){var u=1-i;return 3*(u*u*(n-t)+2*u*i*(r-n)+i*i*(e-r))}function J(t,n,r,e,i){var u=arguments.length>5&&void 0!==arguments[5]&&arguments[5],o={x:Q(t.x,n.x,r.x,e.x,i),y:Q(t.y,n.y,r.y,e.y,i)};return u&&(o.a=K(t,n,r,e,i)),o}function K(t,n,r,e,i){return Math.atan2(Z(t.y,n.y,r.y,e.y,i),Z(t.x,n.x,r.x,e.x,i))}function tt(t,n,r){var e=arguments.length>3&&void 0!==arguments[3]&&arguments[3];if(rt(n)){if(et(r))return X(n,r.start,r,t,e)}else if(rt(r)){if(n.end)return X(n,n.end,r,t,e)}else{if(n.end)return r.start?J(n,n.end,r.start,r,t,e):X(n,n.end,r,t,e);if(r.start)return X(n,r.start,r,t,e)}return W(n,r,t,e)}function nt(t,n,r){var e=tt(t,n,r,!0);return e.a=function(t){var n=arguments.length>1&&void 0!==arguments[1]&&arguments[1];return n?t+Math.PI:t}(e.a)/h,e}function rt(t){return!t.type||"corner"===t.type}function et(t){return null!=t.start&&!rt(t)}var it=new R;var ut={f:function(t){return t?t.join(" "):""},i:function(n,r,e){if(0===n)return r;if(1===n)return e;var i=r.length;if(i!==e.length)return v(n,r,e);for(var u,o=new Array(i),a=0;a<i;a++){if((u=t(r[a]))!==t(e[a]))return v(n,r,e);if("number"===u)o[a]=d(n,r[a],e[a]);else{if(r[a]!==e[a])return v(n,r,e);o[a]=r[a]}}return o}},ot={f:null,i:x,u:function(t,n){return function(r){var e=n(r);t.setAttribute("x1",M(e[0])),t.setAttribute("y1",M(e[1])),t.setAttribute("x2",M(e[2])),t.setAttribute("y2",M(e[3]))}}},at={f:M,i:d},lt={f:M,i:function(t,n,r){var e=d(t,n,r);return e<=0?0:e>=1?1:e}},st={f:S,i:function(t,n,r){var e,i,u,o=n.length,a=r.length;if(o!==a)if(0===o)n=k(o=a,0);else if(0===a)a=o,r=k(o,0);else{var l=(u=(e=o)*(i=a)/function(t,n){for(var r;n;)r=n,n=t%n,t=r;return t||1}(e,i))<0?-u:u;n=A(n,Math.floor(l/o)),r=A(r,Math.floor(l/a)),o=a=l}for(var s=[],f=0;f<o;f++)s.push(c(y(t,n[f],r[f]),6));return s}};function ft(t,n,r,e,i,u,o,a){return n=function(t,n,r){for(var e,i,u,o=t.length-1,a={},l=0;l<=o;l++)(e=t[l]).e&&(e.e=n(e.e)),e.v&&"g"===(i=e.v).t&&i.r&&(u=r.getElementById(i.r))&&(a[i.r]=u.querySelectorAll("stop"));return a}(t,e,a),function(e){var i,u=r(e,t,ct);return u?"c"===u.t?B(u.v):"g"===u.t?(n[u.r]&&function(t,n){for(var r=0,e=t.length;r<e;r++)t[r].setAttribute("stop-color",B(n[r]))}(n[u.r],u.v),(i=u.r)?"url(#"+i+")":"none"):"none":"none"}}function ct(t,n,r){if(0===t)return n;if(1===t)return r;if(n&&r){var e=n.t;if(e===r.t)switch(n.t){case"c":return{t:e,v:b(t,n.v,r.v)};case"g":if(n.r===r.r)return{t:e,v:w(t,n.v,r.v),r:n.r}}}return v(t,n,r)}var ht={blur:m,brightness:y,contrast:y,"drop-shadow":function(t,n,r){return 0===t?n:1===t?r:{blur:m(t,n.blur,r.blur),offset:g(t,n.offset,r.offset),color:b(t,n.color,r.color)}},grayscale:y,"hue-rotate":d,invert:y,opacity:y,saturate:y,sepia:y};function vt(t,n,r){if(0===t)return n;if(1===t)return r;var e=n.length;if(e!==r.length)return v(t,n,r);for(var i,u=[],o=0;o<e;o++){if(n[o].type!==r[o].type)return n;if(!(i=ht[n[o].type]))return v(t,n,r);u.push({type:n.type,value:i(t,n[o].value,r[o].value)})}return u}var dt={blur:function(t){return t?function(n){t.setAttribute("stdDeviation",E(n))}:null},brightness:function(t,n,r){return(t=gt(r,n))?function(n){n=M(n),t.map((function(t){return t.setAttribute("slope",n)}))}:null},contrast:function(t,n,r){return(t=gt(r,n))?function(n){var r=M((1-n)/2);n=M(n),t.map((function(t){t.setAttribute("slope",n),t.setAttribute("intercept",r)}))}:null},"drop-shadow":function(t,n,r){var e=r.getElementById(n+"-blur");if(!e)return null;var i=r.getElementById(n+"-offset");if(!i)return null;var u=r.getElementById(n+"-flood");return u?function(t){e.setAttribute("stdDeviation",E(t.blur)),i.setAttribute("dx",M(t.offset.x)),i.setAttribute("dy",M(t.offset.y)),u.setAttribute("flood-color",B(t.color))}:null},grayscale:function(t){return t?function(n){t.setAttribute("values",S(function(t){return[.2126+.7874*(t=1-t),.7152-.7152*t,.0722-.0722*t,0,0,.2126-.2126*t,.7152+.2848*t,.0722-.0722*t,0,0,.2126-.2126*t,.7152-.7152*t,.0722+.9278*t,0,0,0,0,0,1,0]}(n)))}:null},"hue-rotate":function(t){return t?function(n){return t.setAttribute("values",M(n))}:null},invert:function(t,n,r){return(t=gt(r,n))?function(n){n=M(n)+" "+M(1-n),t.map((function(t){return t.setAttribute("tableValues",n)}))}:null},opacity:function(t,n,r){return(t=r.getElementById(n+"-A"))?function(n){return t.setAttribute("tableValues","0 "+M(n))}:null},saturate:function(t){return t?function(n){return t.setAttribute("values",M(n))}:null},sepia:function(t){return t?function(n){return t.setAttribute("values",S(function(t){return[.393+.607*(t=1-t),.769-.769*t,.189-.189*t,0,0,.349-.349*t,.686+.314*t,.168-.168*t,0,0,.272-.272*t,.534-.534*t,.131+.869*t,0,0,0,0,0,1,0]}(n)))}:null}};var yt=["R","G","B"];function gt(t,n){var r=yt.map((function(r){return t.getElementById(n+"-"+r)||null}));return-1!==r.indexOf(null)?null:r}var mt={fill:ft,"fill-opacity":lt,stroke:ft,"stroke-opacity":lt,"stroke-width":at,"stroke-dashoffset":{f:M,i:d},"stroke-dasharray":st,opacity:lt,transform:function(n,r,e,i){if(!(n=function(n,r){if(!n||"object"!==t(n))return null;var e=!1;for(var i in n)n.hasOwnProperty(i)&&(n[i]&&n[i].length?(n[i].forEach((function(t){t.e&&(t.e=r(t.e))})),e=!0):delete n[i]);return e?n:null}(n,i)))return null;var u=function(t,i,u){var o=arguments.length>3&&void 0!==arguments[3]?arguments[3]:null;return n[t]?e(i,n[t],u):r&&r[t]?r[t]:o};return r&&r.a&&n.o?function(t){var r=e(t,n.o,nt);return it.recomposeSelf(r,u("r",t,d,0)+r.a,u("k",t,g),u("s",t,g),u("t",t,g)).toString()}:function(t){return it.recomposeSelf(u("o",t,tt,null),u("r",t,d,0),u("k",t,g),u("s",t,g),u("t",t,g)).toString()}},"#filter":function(t,n,r,e,i,u,o,a){if(!n.items||!t||!t.length)return null;var l=function(t,n){var r=(t=t.map((function(t){return t&&dt[t[0]]?(n.getElementById(t[1]),dt[t[0]](n.getElementById(t[1]),t[1],n)):null}))).length;return function(n){for(var e=0;e<r;e++)t[e]&&t[e](n[e].value)}}(n.items,a);return l?(t=function(t,n){return t.map((function(t){return t.e=n(t.e),t}))}(t,e),function(n){l(r(n,t,vt))}):null},"#line":ot,points:{f:S,i:x},d:ut,r:at,"#size":F,"#radius":I,_:function(t,n){if(Array.isArray(t))for(var r=0;r<t.length;r++)this[t[r]]=n;else this[t]=n}},pt=function(){function t(r){n(this,t),this.list=r,this.length=r.length}return e(t,[{key:"setAttribute",value:function(t,n){for(var r=this.list,e=0;e<this.length;e++)r[e].setAttribute(t,n)}},{key:"removeAttribute",value:function(t){for(var n=this.list,r=0;r<this.length;r++)n[r].removeAttribute(t)}},{key:"style",value:function(t,n){for(var r=this.list,e=0;e<this.length;e++)r[e].style[t]=n}}]),t}(),bt=/-./g,wt=function(t,n){return n.toUpperCase()};function xt(t){return"function"==typeof t?t:v}function kt(t){return t?"function"==typeof t?t:Array.isArray(t)?function(t){var n=arguments.length>1&&void 0!==arguments[1]?arguments[1]:u;if(!Array.isArray(t))return n;switch(t.length){case 1:return f(t[0])||n;case 2:return f(t[0],t[1])||n;case 4:return a(t[0],t[1],t[2],t[3])||n}return n}(t,null):function(t,n){var r=arguments.length>2&&void 0!==arguments[2]?arguments[2]:u;switch(t){case"linear":return u;case"steps":return f(n.steps||1,n.jump||0)||r;case"bezier":case"cubic-bezier":return a(n.x1||0,n.y1||0,n.x2||0,n.y2||0)||r}return r}(t.type,t.value,null):null}function At(t,n,r){var e=arguments.length>3&&void 0!==arguments[3]&&arguments[3],i=n.length-1;if(t<=n[0].t)return e?[0,0,n[0].v]:n[0].v;if(t>=n[i].t)return e?[i,1,n[i].v]:n[i].v;var u,o=n[0],a=null;for(u=1;u<=i;u++){if(!(t>n[u].t)){a=n[u];break}o=n[u]}return null==a?e?[i,1,n[i].v]:n[i].v:o.t===a.t?e?[u,1,a.v]:a.v:(t=(t-o.t)/(a.t-o.t),o.e&&(t=o.e(t)),e?[u,t,r(t,o.v,a.v)]:r(t,o.v,a.v))}function _t(t,n){var r=arguments.length>2&&void 0!==arguments[2]?arguments[2]:null;return t&&t.length?"function"!=typeof n?null:("function"!=typeof r&&(r=null),function(e){var i=At(e,t,n);return null!=i&&r&&(i=r(i)),i}):null}function Mt(t,n){return t.t-n.t}function St(n,r,e,i,u){var o,a="@"===e[0],l="#"===e[0],s=mt[e],f=v;switch(a?(o=e.substr(1),e=o.replace(bt,wt)):l&&(e=e.substr(1)),t(s)){case"function":if(f=s(i,u,At,kt,e,a,r,n),l)return f;break;case"string":f=_t(i,xt(s));break;case"object":if((f=_t(i,xt(s.i),s.f))&&"function"==typeof s.u)return s.u(r,f,e,a,n)}return f?function(t,n,r){var e=arguments.length>3&&void 0!==arguments[3]&&arguments[3];if(e)return t instanceof pt?function(e){return t.style(n,r(e))}:function(e){return t.style[n]=r(e)};if(Array.isArray(n)){var i=n.length;return function(e){var u=r(e);if(null==u)for(var o=0;o<i;o++)t[o].removeAttribute(n);else for(var a=0;a<i;a++)t[a].setAttribute(n,u)}}return function(e){var i=r(e);null==i?t.removeAttribute(n):t.setAttribute(n,i)}}(r,e,f,a):null}function Et(n,r,e,i){if(!i||"object"!==t(i))return null;var u=null,o=null;return Array.isArray(i)?o=function(t){if(!t||!t.length)return null;for(var n=0;n<t.length;n++)t[n].e&&(t[n].e=kt(t[n].e));return t.sort(Mt)}(i):(o=i.keys,u=i.data||null),o?St(n,r,e,o,u):null}function Bt(t,n,r){if(!r)return null;var e=[];for(var i in r)if(r.hasOwnProperty(i)){var u=Et(t,n,i,r[i]);u&&e.push(u)}return e.length?e:null}function It(t,n){if(!n.duration||n.duration<0)return null;var r=function(t,n){if(!n)return null;var r=[];if(Array.isArray(n))for(var e=n.length,i=0;i<e;i++){var u=n[i];if(2===u.length){var o=null;if("string"==typeof u[0])o=t.getElementById(u[0]);else if(Array.isArray(u[0])){o=[];for(var a=0;a<u[0].length;a++)if("string"==typeof u[0][a]){var l=t.getElementById(u[0][a]);l&&o.push(l)}o=o.length?1===o.length?o[0]:new pt(o):null}if(o){var s=Bt(t,o,u[1]);s&&(r=r.concat(s))}}}else for(var f in n)if(n.hasOwnProperty(f)){var c=t.getElementById(f);if(c){var h=Bt(t,c,n[f]);h&&(r=r.concat(h))}}return r.length?r:null}(t,n.elements);return r?function(t,n){var r=arguments.length>2&&void 0!==arguments[2]?arguments[2]:1/0,e=arguments.length>3&&void 0!==arguments[3]?arguments[3]:1,i=arguments.length>4&&void 0!==arguments[4]&&arguments[4],u=arguments.length>5&&void 0!==arguments[5]?arguments[5]:1,o=t.length,a=e>0?n:0;i&&r%2==0&&(a=n-a);var l=null;return function(s,f){var c=s%n,h=1+(s-c)/n;f*=e,i&&h%2==0&&(f=-f);var v=!1;if(h>r)c=a,v=!0,-1===u&&(c=e>0?0:n);else if(f<0&&(c=n-c),c===l)return!1;l=c;for(var d=0;d<o;d++)t[d](c);return v}}(r,n.duration,n.iterations||1/0,n.direction||1,!!n.alternate,n.fill||1):null}var Ft=function(t,n){var r=!1,e=null;return function(i){r&&clearTimeout(r),r=setTimeout((function(){return function(){for(var i=0,u=window.innerHeight,o=0,a=window.innerWidth,l=t.parentNode;l instanceof Element;){var s=window.getComputedStyle(l);if("visible"!==s.overflowY||"visible"!==s.overflowX){var f=l.getBoundingClientRect();"visible"!==s.overflowY&&(i=Math.max(i,f.top),u=Math.min(u,f.bottom)),"visible"!==s.overflowX&&(o=Math.max(o,f.left),a=Math.min(a,f.right))}if(l===l.parentNode)break;l=l.parentNode}r=!1;var c=t.getBoundingClientRect(),h=Math.min(c.height,Math.max(0,i-c.top)),v=Math.min(c.height,Math.max(0,c.bottom-u)),d=Math.min(c.width,Math.max(0,o-c.left)),y=Math.min(c.width,Math.max(0,c.right-a)),g=(c.height-h-v)/c.height,m=(c.width-d-y)/c.width,p=Math.round(g*m*100);null!==e&&e===p||(e=p,n(p))}()}),100)}},Ot=function(){function t(r,e,i){n(this,t),e=Math.max(1,e||1),e=Math.min(e,100),this.el=r,this.onTresholdChange=i&&i.call?i:function(){},this.tresholdPercent=e||1,this.currentVisibility=null,this.visibilityCalculator=Ft(r,this.onVisibilityUpdate.bind(this)),this.bindScrollWatchers(),this.visibilityCalculator()}return e(t,[{key:"bindScrollWatchers",value:function(){for(var t=this.el.parentNode;t&&(t.addEventListener("scroll",this.visibilityCalculator),t!==t.parentNode&&t!==document);)t=t.parentNode}},{key:"onVisibilityUpdate",value:function(t){var n=this.currentVisibility>=this.tresholdPercent,r=t>=this.tresholdPercent;if(null===this.currentVisibility||n!==r)return this.currentVisibility=t,void this.onTresholdChange(r);this.currentVisibility=t}}]),t}(),Tt=function(){function t(r,e){var i=arguments.length>2&&void 0!==arguments[2]?arguments[2]:{};n(this,t),this._id=0,this._running=!1,this._rollingBack=!1,this._animations=r,this.duration=e.duration,this.alternate=e.alternate,this.fill=e.fill,this.iterations=e.iterations,this.direction=i.direction||1,this.speed=i.speed||1,this.fps=i.fps||100,this.offset=i.offset||0,this.rollbackStartOffset=0}return e(t,[{key:"_rollback",value:function(){var t=this,n=1/0,r=null;this.rollbackStartOffset=this.offset,this._rollingBack||(this._rollingBack=!0,this._running=!0);this._id=window.requestAnimationFrame((function e(i){if(t._rollingBack){null==r&&(r=i);var u=i-r,o=t.rollbackStartOffset-u,a=Math.round(o*t.speed);if(a>t.duration&&n!=1/0){var l=!!t.alternate&&a/t.duration%2>1,s=a%t.duration;a=(s+=l?t.duration:0)||t.duration}var f=t.fps?1e3/t.fps:0,c=Math.max(0,a);if(c<n-f){t.offset=c,n=c;for(var h=t._animations,v=h.length,d=0;d<v;d++)h[d](c,t.direction)}var y=!1;if(t.iterations>0&&-1===t.fill){var g=t.iterations*t.duration,m=g==a;a=m?0:a,t.offset=m?0:t.offset,y=a>g}a>0&&t.offset>=a&&!y?t._id=window.requestAnimationFrame(e):t.stop()}}))}},{key:"_start",value:function(){var t=this,n=arguments.length>0&&void 0!==arguments[0]?arguments[0]:0,r=-1/0,e=null,i={},u=function u(o){t._running=!0,null==e&&(e=o);var a=Math.round((o-e+n)*t.speed),l=t.fps?1e3/t.fps:0;if(a>r+l&&!t._rollingBack){t.offset=a,r=a;for(var s=t._animations,f=s.length,c=0,h=0;h<f;h++)i[h]?c++:(i[h]=s[h](a,t.direction),i[h]&&c++);if(c===f)return void t._stop()}t._id=window.requestAnimationFrame(u)};this._id=window.requestAnimationFrame(u)}},{key:"_stop",value:function(){this._id&&window.cancelAnimationFrame(this._id),this._running=!1,this._rollingBack=!1}},{key:"play",value:function(){!this._rollingBack&&this._running||(this._rollingBack=!1,this.rollbackStartOffset>this.duration&&(this.offset=this.rollbackStartOffset-(this.rollbackStartOffset-this.offset)%this.duration,this.rollbackStartOffset=0),this._start(this.offset))}},{key:"stop",value:function(){this._stop(),this.offset=0,this.rollbackStartOffset=0;var t=this.direction,n=this._animations;window.requestAnimationFrame((function(){for(var r=0;r<n.length;r++)n[r](0,t)}))}},{key:"reachedToEnd",value:function(){return this.iterations>0&&this.offset>=this.iterations*this.duration}},{key:"restart",value:function(){this._stop(),this.offset=0,this._start()}},{key:"pause",value:function(){this._stop()}},{key:"reverse",value:function(){this.direction=-this.direction}}],[{key:"build",value:function(n){if(!(n=function(t){if(!t||!t.root||!Array.isArray(t.animations))return null;var n=window.document.getElementById(t.root);if(!n)return null;var r=t.animations.map((function(t){return It(n,t)})).filter((function(t){return!!t}));return r.length?{element:n,animations:r,animationSettings:t.animationSettings,options:t.options||void 0}:null}(n)))return null;var r=n.element,e=n.options||{},i=new t(n.animations,n.animationSettings,n.options);return function(t,n,r){if("click"===r.start){return void n.addEventListener("click",(function(){switch(r.click){case"freeze":return!t._running&&t.reachedToEnd()&&(t.offset=0),t._running?t.pause():t.play();case"restart":return t.offset>0?t.restart():t.play();case"reverse":var n=!t._rollingBack&&t._running,e=t.reachedToEnd();return n||e&&1===t.fill?(t.pause(),e&&(t.offset=t.duration-1),t._rollback()):e?t.restart():t.play();case"none":default:return!t._running&&t.offset?t.restart():t.play()}}))}if("hover"===r.start)return n.addEventListener("mouseenter",(function(){return t.reachedToEnd()?t.restart():t.play()})),void n.addEventListener("mouseleave",(function(){switch(r.hover){case"freeze":return t.pause();case"reset":return t.stop();case"reverse":return t.pause(),t._rollback();case"none":default:return}}));if("scroll"===r.start)return void new Ot(n,r.scroll||25,(function(n){n?t.reachedToEnd()?t.restart():t.play():t.pause()}));t.play()}(i,r,e||{}),i}}]),t}();return function(){for(var t=0,n=["ms","moz","webkit","o"],r=0;r<n.length&&!window.requestAnimationFrame;++r)window.requestAnimationFrame=window[n[r]+"RequestAnimationFrame"],window.cancelAnimationFrame=window[n[r]+"CancelAnimationFrame"]||window[n[r]+"CancelRequestAnimationFrame"];window.requestAnimationFrame||(window.requestAnimationFrame=function(n){var r=Date.now(),e=Math.max(0,16-(r-t)),i=window.setTimeout((function(){n(r+e)}),e);return t=r+e,i},window.cancelAnimationFrame=window.clearTimeout)}(),Tt}));
__SVGATOR_PLAYER__.build({"root":"efxc4pz558wj1","animations":[{"duration":3000,"direction":1,"iterations":1,"fill":1,"alternate":false,"elements":{"efxc4pz558wj2":{"transform":{"data":{"t":{"x":-159.96965911984444,"y":-55.32119560241699}},"keys":{"o":[{"t":0,"v":{"x":159.96965911984444,"y":55.32119560241699,"type":"corner"}},{"t":3000,"v":{"x":510.8268021198444,"y":63.49999999741703,"type":"corner"}}]}}}}}],"options":{"start":"click","hover":"freeze","click":"freeze","scroll":25,"exportedIds":"unique","title":"test export"},"animationSettings":{"duration":3000,"direction":1,"iterations":1,"fill":1,"alternate":false}})]]></script></svg>